# xmcd CD database file
#
# Track frame offsets:
#	150
#	19570
#	40987
#	58147
#	80182
#	93612
#	115730
#	144502
#	165502
#	184537
#	208040
#	227095
#	247882
#	265645
#	288480
#	306660
#
# Disc length: 4416 seconds
#
# Revision: 0
# Processed by: cddbd v1.5.1PL0 Copyright (c) Steve Scherf et al.
# Submitted via: CDex 1.51
#
DISCID=e0113e10
DTITLE=ちあきなおみ - ちあきなおみ大全集 DISC1 〜ちあきわーるど〜
DYEAR=2001
DGENRE=JPop
TTITLE0=黄昏のビギン
TTITLE1=かもめの街
TTITLE2=喝采
TTITLE3=雨に濡れた慕情
TTITLE4=星影の小径
TTITLE5=悲しみを拾って
TTITLE6=百花繚乱
TTITLE7=伝わりますか
TTITLE8=役者
TTITLE9=男駅・女駅
TTITLE10=悲恋
TTITLE11=冬隣
TTITLE12=イマージュ
TTITLE13=紅い花
TTITLE14=色は匂へど
TTITLE15=TOKYO挽歌
EXTD=YEAR: 2001
EXTT0=
EXTT1=
EXTT2=
EXTT3=
EXTT4=
EXTT5=
EXTT6=
EXTT7=
EXTT8=
EXTT9=
EXTT10=
EXTT11=
EXTT12=
EXTT13=
EXTT14=
EXTT15=
PLAYORDER=
